<?xml version="1.0" standalone="no"?>
<!DOCTYPE svg PUBLIC "-//W3C//DTD SVG 20010904//EN"
 "http://www.w3.org/TR/2001/REC-SVG-20010904/DTD/svg10.dtd">
<svg version="1.0" xmlns="http://www.w3.org/2000/svg"
 width="512.000000pt" height="512.000000pt" viewBox="0 0 512.000000 512.000000"
 preserveAspectRatio="xMidYMid meet">

<g transform="translate(0.000000,512.000000) scale(0.100000,-0.100000)"
fill="#000000" stroke="none">
<path d="M3043 4877 c-235 -235 -243 -244 -243 -282 0 -38 8 -48 297 -337
l298 -298 -143 -142 -142 -143 -85 85 c-79 79 -88 85 -126 85 -54 0 -99 -46
-99 -103 0 -35 18 -55 453 -489 434 -435 454 -453 489 -453 57 0 103 45 103
99 0 38 -6 47 -85 126 l-85 85 143 142 142 143 298 -298 c279 -278 300 -297
334 -297 20 0 46 8 61 20 32 26 32 26 47 -10 29 -70 104 -91 159 -44 40 33 41
79 5 170 l-27 65 143 144 143 144 -6 42 c-5 40 -24 61 -299 336 l-293 293 187
187 c186 188 207 217 193 265 -10 30 -450 474 -487 489 -15 6 -40 8 -55 4 -18
-4 -97 -75 -216 -193 l-187 -187 -288 287 c-158 157 -297 291 -309 297 -58 29
-64 24 -320 -232z m635 -634 l-143 -143 -247 247 -248 248 142 142 143 143
247 -247 248 -248 -142 -142z m849 285 c73 -73 133 -137 133 -143 0 -5 -253
-263 -562 -572 l-563 -563 -142 142 -143 143 562 562 c310 310 567 563 573
563 5 0 69 -60 142 -132z m211 -1345 l-143 -143 -247 247 -248 248 142 142
143 143 247 -247 248 -248 -142 -142z"/>
<path d="M1372 5080 c-71 -8 -111 -32 -125 -74 -12 -36 -2 -72 29 -103 l26
-25 131 7 c145 8 178 19 198 67 16 39 3 93 -28 118 -28 22 -100 25 -231 10z"/>
<path d="M1910 5078 c-38 -14 -59 -38 -66 -73 -7 -38 16 -89 47 -106 11 -6 79
-16 150 -22 123 -10 130 -10 157 10 54 40 53 122 -2 158 -37 25 -245 49 -286
33z"/>
<path d="M825 4981 c-122 -33 -143 -44 -160 -84 -18 -43 -9 -82 27 -112 38
-32 59 -31 193 5 130 35 160 58 160 121 0 34 -6 46 -33 70 -40 35 -57 36 -187
0z"/>
<path d="M2495 4981 c-37 -15 -60 -51 -60 -92 0 -61 31 -84 169 -125 102 -30
123 -33 152 -24 43 15 64 44 64 93 0 61 -35 87 -165 125 -116 34 -128 36 -160
23z"/>
<path d="M255 4774 c-116 -53 -155 -88 -155 -140 0 -49 45 -94 93 -94 48 0
237 89 265 125 50 63 2 155 -80 155 -13 0 -68 -21 -123 -46z"/>
<path d="M1450 3194 c-269 -32 -528 -124 -733 -262 -472 -316 -740 -842 -714
-1402 35 -743 565 -1355 1300 -1502 161 -32 433 -32 595 0 180 36 415 123 469
174 65 61 19 168 -72 168 -14 0 -53 -14 -86 -31 -123 -62 -429 -145 -449 -122
-3 4 -23 61 -44 125 -43 139 -118 291 -180 370 -92 115 -196 178 -384 232 -64
18 -133 40 -153 49 -55 23 -112 79 -145 144 -25 50 -29 69 -29 138 0 92 16
133 136 341 88 152 125 242 139 330 35 223 -104 436 -399 614 l-74 44 57 52
c120 109 316 221 481 273 100 33 252 64 266 55 5 -3 9 -29 9 -59 0 -168 80
-314 207 -378 26 -14 93 -39 149 -56 56 -17 109 -40 119 -51 25 -28 26 -107 2
-125 -10 -7 -57 -19 -105 -25 -125 -18 -188 -44 -243 -99 -80 -83 -98 -226
-44 -371 88 -243 289 -563 460 -736 155 -155 277 -198 403 -139 102 47 169
138 362 490 84 153 197 332 223 354 13 10 16 0 22 -76 20 -230 -27 -486 -126
-702 -22 -46 -39 -95 -39 -108 0 -90 108 -134 169 -69 50 53 146 320 178 496
26 144 24 421 -5 565 -130 654 -622 1148 -1268 1275 -105 21 -366 34 -454 24z
m435 -225 c450 -90 860 -437 1020 -863 l22 -59 -64 -76 c-90 -106 -194 -267
-303 -466 -127 -234 -157 -283 -208 -338 -57 -60 -81 -61 -153 -7 -119 90
-307 347 -419 574 -72 148 -97 231 -84 284 11 47 31 56 158 77 116 18 169 40
213 86 47 50 65 102 65 185 0 121 -38 200 -121 253 -25 16 -98 45 -161 65 -91
28 -123 43 -148 68 -41 43 -62 105 -62 185 l0 65 73 -7 c39 -4 117 -16 172
-26z m-1299 -575 c182 -110 292 -224 314 -327 19 -92 -13 -187 -131 -383 -106
-176 -149 -297 -149 -414 0 -178 118 -372 272 -448 35 -17 115 -45 178 -62
182 -51 256 -96 330 -201 23 -32 54 -87 69 -121 38 -84 85 -227 77 -235 -10
-11 -238 25 -332 53 -232 66 -426 183 -604 363 -63 64 -138 150 -165 191 -108
163 -183 344 -221 535 -27 136 -25 397 4 532 26 121 71 251 119 348 36 72 133
225 142 225 3 0 47 -25 97 -56z"/>
<path d="M4847 2530 c-37 -30 -41 -66 -17 -182 28 -133 37 -156 71 -173 55
-29 117 -8 139 46 12 28 11 47 -10 153 -20 100 -29 126 -51 149 -34 34 -93 37
-132 7z"/>
<path d="M4928 1931 l-32 -29 2 -133 c4 -147 13 -179 61 -199 38 -16 82 -5
112 26 20 21 24 38 27 100 3 41 1 105 -3 141 -6 54 -12 72 -35 95 -39 39 -88
38 -132 -1z"/>
<path d="M4910 1347 c-32 -26 -41 -48 -60 -153 -26 -146 -26 -160 9 -195 50
-49 135 -34 160 29 15 38 41 187 41 234 0 55 -43 98 -97 98 -21 0 -45 -6 -53
-13z"/>
<path d="M4768 765 c-18 -10 -34 -33 -48 -72 -72 -192 -73 -193 -64 -225 21
-72 115 -96 164 -41 26 29 100 217 100 254 0 29 -27 77 -49 89 -27 14 -71 12
-103 -5z"/>
<path d="M2611 626 c-87 -48 -50 -186 49 -186 51 0 100 49 100 99 0 75 -83
124 -149 87z"/>
</g>
</svg>
